<?xml version="1.0" standalone="no"?>
<!DOCTYPE svg PUBLIC "-//W3C//DTD SVG 20010904//EN"
 "http://www.w3.org/TR/2001/REC-SVG-20010904/DTD/svg10.dtd">
<svg version="1.0" xmlns="http://www.w3.org/2000/svg"
 width="225.000000pt" height="225.000000pt" viewBox="0 0 225.000000 225.000000"
 preserveAspectRatio="xMidYMid meet">

<g transform="translate(0.000000,225.000000) scale(0.100000,-0.100000)"
fill="#000000" stroke="none">
<path d="M640 2172 c-209 -79 -267 -110 -331 -179 -63 -66 -84 -112 -200 -427
-98 -269 -110 -309 -97 -322 20 -21 358 -153 374 -147 7 2 30 55 51 116 l38
112 3 -233 c2 -195 5 -234 17 -238 21 -8 21 -90 0 -98 -13 -5 -15 -56 -15
-375 0 -327 2 -370 16 -375 23 -9 1247 -7 1261 2 10 6 13 154 15 663 l3 654
38 -112 c21 -61 44 -114 51 -116 16 -6 354 126 374 147 13 13 1 53 -98 322
-61 170 -127 331 -144 359 -42 65 -123 137 -192 171 -50 25 -57 26 -71 11 -13
-12 -21 -13 -40 -4 -18 8 -29 8 -44 -1 -23 -14 -49 -15 -69 -2 -10 6 -3 8 22
3 30 -4 39 -2 44 12 12 31 -10 47 -131 91 l-119 44 -275 0 -276 -1 -205 -77z
m797 -36 c-7 -14 -13 -23 -15 -21 -7 6 9 45 18 45 4 0 3 -11 -3 -24z m-609
-17 c-3 -8 -7 -3 -11 10 -4 17 -3 21 5 13 5 -5 8 -16 6 -23z m692 11 c8 -5 11
-10 5 -10 -5 0 -17 5 -25 10 -8 5 -10 10 -5 10 6 0 17 -5 25 -10z m211 -77
c13 -16 12 -17 -3 -4 -10 7 -18 15 -18 17 0 8 8 3 21 -13z m59 -28 c17 -9 30
-18 30 -21 0 -4 -59 23 -69 32 -10 9 13 3 39 -11z m-880 -30 c19 -19 32 -35
29 -35 -3 0 -20 16 -39 35 -19 19 -32 35 -29 35 3 0 20 -16 39 -35z m470 32
c0 -2 -17 -19 -37 -38 l-38 -34 34 38 c33 34 41 42 41 34z m552 -132 c6 -11 9
-18 6 -15 -2 3 -29 32 -58 65 l-54 60 48 -45 c26 -25 52 -54 58 -65z m-897 25
c13 -6 15 -9 5 -9 -8 0 -22 4 -30 9 -18 12 -2 12 25 0z m205 0 c-8 -5 -22 -9
-30 -9 -10 0 -8 3 5 9 27 12 43 12 25 0z m-132 -17 c-10 -2 -26 -2 -35 0 -10
3 -2 5 17 5 19 0 27 -2 18 -5z m70 0 c-10 -2 -26 -2 -35 0 -10 3 -2 5 17 5 19
0 27 -2 18 -5z m792 -77 c0 -12 -5 -7 -19 24 -11 24 -11 24 3 6 9 -11 16 -24
16 -30z m20 -51 c0 -5 -5 -3 -10 5 -5 8 -10 20 -10 25 0 6 5 3 10 -5 5 -8 10
-19 10 -25z m-853 -61 c-3 -3 -12 -4 -19 -1 -8 3 -5 6 6 6 11 1 17 -2 13 -5z
m-67 -17 c0 -2 -12 -14 -27 -28 l-28 -24 24 28 c23 25 31 32 31 24z m140 -22
c13 -14 21 -25 18 -25 -2 0 -15 11 -28 25 -13 14 -21 25 -18 25 2 0 15 -11 28
-25z m820 -10 c0 -5 -5 -3 -10 5 -5 8 -10 20 -10 25 0 6 5 3 10 -5 5 -8 10
-19 10 -25z m-1473 -22 c-3 -10 -5 -4 -5 12 0 17 2 24 5 18 2 -7 2 -21 0 -30z
m1143 -698 l0 -735 -257 2 -258 3 253 2 252 3 0 730 c0 402 2 730 5 730 3 0 5
-331 5 -735z m-1233 613 c-2 -24 -4 -7 -4 37 0 44 2 63 4 43 2 -21 2 -57 0
-80z m1320 80 c-3 -7 -5 -2 -5 12 0 14 2 19 5 13 2 -7 2 -19 0 -25z m-581
-123 c44 -84 70 -125 90 -137 16 -9 81 -24 144 -33 125 -18 150 -27 150 -52 0
-9 -45 -63 -100 -118 -115 -118 -111 -103 -80 -284 20 -118 17 -141 -17 -141
-8 0 -67 27 -130 60 -64 33 -126 60 -139 60 -12 0 -74 -27 -137 -60 -64 -33
-122 -60 -130 -60 -36 0 -39 25 -18 141 33 179 37 166 -79 284 -55 55 -100
108 -100 117 0 27 22 35 145 53 65 9 132 23 147 31 20 10 41 42 79 122 56 117
75 144 98 140 9 -2 44 -57 77 -123z m43 95 c11 -24 11 -24 -3 -6 -9 11 -16 24
-16 30 0 12 5 7 19 -24z m821 -55 c0 -5 -5 -3 -10 5 -5 8 -10 20 -10 25 0 6 5
3 10 -5 5 -8 10 -19 10 -25z m-1099 -18 c-10 -9 -11 -8 -5 6 3 10 9 15 12 12
3 -3 0 -11 -7 -18z m318 -7 c11 -24 11 -24 -3 -6 -9 11 -16 24 -16 30 0 12 5
7 19 -24z m815 -70 c5 -17 4 -20 -2 -10 -5 8 -13 26 -16 40 -5 17 -4 20 2 10
5 -8 13 -26 16 -40z m-775 -15 c0 -5 -6 1 -14 15 -8 14 -14 30 -14 35 0 6 6
-1 14 -15 8 -14 14 -29 14 -35z m-398 12 c-10 -9 -11 -8 -5 6 3 10 9 15 12 12
3 -3 0 -11 -7 -18z m-24 -23 c-3 -3 -12 -4 -19 -1 -8 3 -5 6 6 6 11 1 17 -2
13 -5z m460 0 c-3 -3 -12 -4 -19 -1 -8 3 -5 6 6 6 11 1 17 -2 13 -5z m-509
-11 c-10 -2 -26 -2 -35 0 -10 3 -2 5 17 5 19 0 27 -2 18 -5z m570 0 c-10 -2
-26 -2 -35 0 -10 3 -2 5 17 5 19 0 27 -2 18 -5z m-645 -10 c-7 -2 -19 -2 -25
0 -7 3 -2 5 12 5 14 0 19 -2 13 -5z m720 0 c-7 -2 -21 -2 -30 0 -10 3 -4 5 12
5 17 0 24 -2 18 -5z m-784 -7 c-2 -2 -20 -6 -39 -10 -25 -4 -31 -3 -20 4 14 9
69 15 59 6z m844 -3 c-7 -2 -19 -2 -25 0 -7 3 -2 5 12 5 14 0 19 -2 13 -5z
m527 -3 c-8 -5 -19 -10 -25 -10 -5 0 -3 5 5 10 8 5 20 10 25 10 6 0 3 -5 -5
-10z m-459 -29 c16 -16 29 -35 29 -43 -1 -7 -7 -1 -16 14 -8 15 -27 34 -42 42
-15 9 -21 15 -14 16 8 0 27 -13 43 -29z m409 9 c-8 -5 -19 -10 -25 -10 -5 0
-3 5 5 10 8 5 20 10 25 10 6 0 3 -5 -5 -10z m-1760 -20 c8 -5 11 -10 5 -10 -5
0 -17 5 -25 10 -8 5 -10 10 -5 10 6 0 17 -5 25 -10z m1710 0 c-8 -5 -19 -10
-25 -10 -5 0 -3 5 5 10 8 5 20 10 25 10 6 0 3 -5 -5 -10z m150 -30 c-8 -5 -19
-10 -25 -10 -5 0 -3 5 5 10 8 5 20 10 25 10 6 0 3 -5 -5 -10z m-1740 -12 c0
-11 -22 -10 -39 1 -10 7 -7 9 12 8 15 -1 27 -5 27 -9z m1267 -45 c-3 -10 -5
-4 -5 12 0 17 2 24 5 18 2 -7 2 -21 0 -30z m-1437 17 c8 -5 11 -10 5 -10 -5 0
-17 5 -25 10 -8 5 -10 10 -5 10 6 0 17 -5 25 -10z m1810 0 c-8 -5 -19 -10 -25
-10 -5 0 -3 5 5 10 8 5 20 10 25 10 6 0 3 -5 -5 -10z m120 -10 c-8 -5 -19 -10
-25 -10 -5 0 -3 5 5 10 8 5 20 10 25 10 6 0 3 -5 -5 -10z m-50 -20 c-8 -5 -19
-10 -25 -10 -5 0 -3 5 5 10 8 5 20 10 25 10 6 0 3 -5 -5 -10z m-1780 -10 c8
-5 11 -10 5 -10 -5 0 -17 5 -25 10 -8 5 -10 10 -5 10 6 0 17 -5 25 -10z m-120
-10 c8 -5 11 -10 5 -10 -5 0 -17 5 -25 10 -8 5 -10 10 -5 10 6 0 17 -5 25 -10z
m1850 0 c-8 -5 -19 -10 -25 -10 -5 0 -3 5 5 10 8 5 20 10 25 10 6 0 3 -5 -5
-10z m-1690 -10 c0 -5 -2 -10 -4 -10 -3 0 -8 5 -11 10 -3 6 -1 10 4 10 6 0 11
-4 11 -10z m-110 -10 c8 -5 11 -10 5 -10 -5 0 -17 5 -25 10 -8 5 -10 10 -5 10
6 0 17 -5 25 -10z m1302 -83 c-72 -72 -92 -99 -93 -122 l-2 -30 -4 29 c-4 26
7 40 88 122 52 52 96 94 99 94 2 0 -37 -42 -88 -93z m448 83 c-8 -5 -19 -10
-25 -10 -5 0 -3 5 5 10 8 5 20 10 25 10 6 0 3 -5 -5 -10z m-1700 -20 c8 -5 11
-10 5 -10 -5 0 -17 5 -25 10 -8 5 -10 10 -5 10 6 0 17 -5 25 -10z m45 -9 c-3
-6 -11 -11 -16 -11 -5 0 -4 6 3 14 14 16 24 13 13 -3z m434 -171 l-2 -25 -4
25 c-3 14 -37 59 -76 100 l-72 75 78 -75 c59 -57 77 -80 76 -100z m-12 -62
c-3 -7 -5 -2 -5 12 0 14 2 19 5 13 2 -7 2 -19 0 -25z m700 -10 c-3 -7 -5 -2
-5 12 0 14 2 19 5 13 2 -7 2 -19 0 -25z m-710 -50 c-3 -7 -5 -2 -5 12 0 14 2
19 5 13 2 -7 2 -19 0 -25z m720 -10 c-3 -7 -5 -2 -5 12 0 14 2 19 5 13 2 -7 2
-19 0 -25z m-730 -55 c-3 -10 -5 -4 -5 12 0 17 2 24 5 18 2 -7 2 -21 0 -30z
m740 -10 c-3 -10 -5 -4 -5 12 0 17 2 24 5 18 2 -7 2 -21 0 -30z m-750 -45 c-3
-7 -5 -2 -5 12 0 14 2 19 5 13 2 -7 2 -19 0 -25z m409 7 c18 -14 17 -15 -7 -4
-20 8 -33 8 -50 -1 -23 -11 -23 -10 -5 4 25 20 37 20 62 1z m349 -12 c-3 -16
-10 -32 -15 -37 -5 -5 -4 7 2 27 13 43 23 50 13 10z m-436 -7 c-2 -2 -15 -9
-29 -15 -24 -11 -24 -11 -6 3 16 13 49 24 35 12z m-285 -56 c6 -9 1 -5 -11 8
-13 13 -23 28 -23 35 0 7 6 3 12 -8 6 -11 16 -27 22 -35z m562 -28 c-5 -4 -66
26 -66 33 0 3 16 -3 35 -12 19 -9 33 -18 31 -21z m134 34 c0 -2 -8 -10 -17
-17 -16 -13 -17 -12 -4 4 13 16 21 21 21 13z m-544 -21 c-11 -8 -25 -15 -30
-15 -6 1 0 7 14 15 32 19 40 18 16 0z m-47 -21 c10 -9 -55 -3 -69 6 -10 6 -2
7 25 3 22 -3 42 -7 44 -9z m541 6 c-8 -5 -28 -9 -45 -9 -30 2 -30 2 5 9 51 11
57 11 40 0z m-467 -467 c-56 -2 -151 -2 -210 0 -59 1 -14 3 102 3 116 0 164
-2 108 -3z m137 -43 c0 -10 -7 -24 -17 -31 -15 -13 -15 -12 -2 9 12 19 12 25
0 45 -13 20 -13 21 2 8 10 -7 17 -21 17 -31z m68 20 c-10 -16 -10 -24 1 -42
13 -21 13 -22 -2 -9 -20 16 -22 42 -5 59 18 18 20 15 6 -8z m-205 -67 c-56 -2
-151 -2 -210 0 -59 1 -14 3 102 3 116 0 164 -2 108 -3z m737 -23 l0 -30 -527
2 -528 3 523 2 c512 3 522 4 522 23 0 19 -9 20 -252 23 l-253 2 258 3 257 2 0
-30z"/>
<path d="M1009 1371 c-20 -20 -29 -40 -29 -61 0 -37 23 -85 45 -93 12 -5 15
-27 15 -117 0 -123 11 -158 55 -178 45 -21 84 -15 116 17 l29 29 0 187 0 187
-29 29 c-27 27 -35 29 -101 29 -66 0 -74 -2 -101 -29z m165 -57 c3 -9 6 -82 6
-164 0 -155 -6 -176 -47 -168 -16 3 -19 18 -23 138 l-5 135 -27 13 c-26 12
-37 40 -21 55 3 4 30 7 59 7 38 0 53 -4 58 -16z"/>
</g>
</svg>
